<?xml version='1.0' encoding='UTF-8'?>
<svg viewBox="-8 -4 32 32" xmlns="http://www.w3.org/2000/svg">
  <g id="Layer_1" transform="translate(-8, -4)">
    <g id="Bookmark">
      <path d="M23, 4L9, 4C8.5, 4 8, 4.5 8, 5L8, 28L16, 20L24, 28L24, 5C24, 4.5 23.5, 4 23, 4z" fill="#D11C1C" class="Red" />
    </g>
  </g>
  <g id="Layer_1" transform="translate(8, 12)">
    <g id="Clear_1_">
      <path d="M15.7, 4.4L11.7, 0.4C11.3, 0 10.5, 0 10.1, 0.4L4.1, 6.4L9.7, 12L15.7, 6C16.1, 5.5 16.1, 4.8 15.7, 4.4z" fill="#D11C1C" class="Red" />
    </g>
  </g>
  <g id="Layer_1" transform="translate(8, 12)">
    <g id="Clear_1_">
      <path d="M2.9, 7.5L0.3, 10C-0.1, 10.4 -0.1, 11.2 0.3, 11.6L4.3, 15.6C4.7, 16 5.5, 16 5.9, 15.6L8.5, 13L2.9, 7.5z" fill="#1177D7" class="Blue" />
    </g>
  </g>
  <g id="Layer_1" transform="translate(8, 12)">
    <g id="Clear_1_">
      <rect x="5.5" y="5.7" width="1.6" height="8" rx="0" ry="0" fill="#FFFFFF" class="White" transform="matrix(0.7071, -0.7071, 0.7071, 0.7071, -5.0285, 7.2907)" />
    </g>
  </g>
</svg>