<?xml version='1.0' encoding='UTF-8'?>
<svg viewBox="-4 -2 32 32" xmlns="http://www.w3.org/2000/svg" xmlns:xlink="http://www.w3.org/1999/xlink">
  <g id="Layer_1" transform="translate(-4, -2)">
    <g id="Report">
      <path d="M27, 4L24, 4L24, 26L8, 26L8, 4L5, 4C4.4, 4 4, 4.4 4, 5L4, 29C4, 29.6 4.4, 30 5, 30L27, 30C27.6, 30 28, 29.6 28, 29L28, 5C28, 4.4 27.6, 4 27, 4z" fill="#FFB115" class="Yellow" />
    </g>
  </g>
  <g id="Layer_1" transform="translate(-4, -2)">
    <g id="Report">
      <path d="M20, 4L20, 3C20, 2.4 19.6, 2 19, 2L13, 2C12.4, 2 12, 2.4 12, 3L12, 4L10, 4L10, 8L13, 8L19, 8L22, 8L22, 4L20, 4z" fill="#727272" class="Black" />
    </g>
  </g>
  <g id="Layer_1" transform="translate(-4, -2)">
    <g id="Report">
      <g opacity="0.75" class="st0">
        <rect x="10" y="20" width="12" height="2" rx="0" ry="0" fill="#727272" opacity="0.75" class="Black" />
      </g>
    </g>
  </g>
  <g id="Layer_1" transform="translate(-4, -2)">
    <g id="Report">
      <g opacity="0.75" class="st0">
        <rect x="10" y="12" width="12" height="2" rx="0" ry="0" fill="#727272" opacity="0.75" class="Black" />
      </g>
    </g>
  </g>
  <g id="Layer_1" transform="translate(-4, -2)">
    <g id="Report">
      <g opacity="0.75" class="st0">
        <rect x="10" y="16" width="12" height="2" rx="0" ry="0" fill="#727272" opacity="0.75" class="Black" />
      </g>
    </g>
  </g>
  <g id="Layer_1" transform="translate(12, 14)">
    <g id="Book_1_">
      <path d="M13, 16L4, 16C2.9, 16 2, 15.1 2, 14L2, 2C2, 0.9 2.9, 0 4, 0L13, 0C13.6, 0 14, 0.4 14, 1L14, 15C14, 15.6 13.6, 16 13, 16z" fill="#1177D7" class="Blue" />
    </g>
  </g>
  <g id="Layer_1" transform="translate(12, 14)">
    <g id="Book_1_">
      <rect x="4" y="2" width="10" height="2" rx="0" ry="0" fill="#FFFFFF" class="White" />
    </g>
  </g>
</svg>