<?xml version='1.0' encoding='UTF-8'?>
<svg viewBox="-6 -4 32 32" xmlns="http://www.w3.org/2000/svg">
  <g id="Layer_1" transform="translate(-6, -4)">
    <g id="Database">
      <path d="M16, 24C10.5, 24 6, 22.2 6, 20L6, 24C6, 26.2 10.5, 28 16, 28C21.5, 28 26, 26.2 26, 24L26, 20C26, 22.2 21.5, 24 16, 24z" fill="#FFB115" class="Yellow" />
    </g>
  </g>
  <g id="Layer_1" transform="translate(-6, -4)">
    <g id="Database">
      <path d="M16, 18C10.5, 18 6, 16.2 6, 14L6, 18C6, 20.2 10.5, 22 16, 22C21.5, 22 26, 20.2 26, 18L26, 14C26, 16.2 21.5, 18 16, 18z" fill="#FFB115" class="Yellow" />
    </g>
  </g>
  <g id="Layer_1" transform="translate(-6, -4)">
    <g id="Database">
      <path d="M16, 4C10.5, 4 6, 5.8 6, 8L6, 12C6, 14.2 10.5, 16 16, 16C21.5, 16 26, 14.2 26, 12L26, 8C26, 5.8 21.5, 4 16, 4z" fill="#FFB115" class="Yellow" />
    </g>
  </g>
  <g id="Layer_1" transform="translate(10, 12)">
    <g id="FolderOpen_2_">
      <g opacity="0.75" class="st0">
        <path d="M4.6, 6.4C4.8, 6.2 5.1, 6 5.5, 6L12, 6L12, 5C12, 4.4 11.5, 4 11, 4L6, 4L6, 3C6, 2.4 5.5, 2 5, 2L1, 2C0.5, 2 0, 2.4 0, 3L0, 13C0, 13.1 0, 13.2 0.1, 13.3L4.6, 6.4z" fill="#1177D7" opacity="0.75" class="Blue" />
      </g>
    </g>
  </g>
  <g id="Layer_1" transform="translate(10, 12)">
    <g id="FolderOpen_2_">
      <path d="M2, 14L6, 8L15, 8C15.8, 8 16.3, 8.9 15.8, 9.6L13.1, 13.6C13, 13.8 12.7, 14 12.3, 14L2, 14z" fill="#1177D7" class="Blue" />
    </g>
  </g>
</svg>