<?xml version='1.0' encoding='UTF-8'?>
<svg viewBox="-2 -2 32 32" xmlns="http://www.w3.org/2000/svg" xmlns:xlink="http://www.w3.org/1999/xlink">
  <g id="Layer_1" transform="translate(-2, -2)">
    <g id="Table_2_">
      <g opacity="0.5" class="st1">
        <rect x="12" y="22" width="8" height="6" rx="0" ry="0" fill="#727272" opacity="0.5" class="Black" />
      </g>
    </g>
  </g>
  <g id="Layer_1" transform="translate(-2, -2)">
    <g id="Table_2_">
      <g opacity="0.5" class="st1">
        <rect x="2" y="14" width="8" height="6" rx="0" ry="0" fill="#727272" opacity="0.5" class="Black" />
      </g>
    </g>
  </g>
  <g id="Layer_1" transform="translate(-2, -2)">
    <g id="Table_2_">
      <g opacity="0.5" class="st1">
        <rect x="2" y="22" width="8" height="6" rx="0" ry="0" fill="#727272" opacity="0.5" class="Black" />
      </g>
    </g>
  </g>
  <g id="Layer_1" transform="translate(-2, -2)">
    <g id="Table_2_">
      <g opacity="0.5" class="st1">
        <rect x="22" y="22" width="8" height="6" rx="0" ry="0" fill="#727272" opacity="0.5" class="Black" />
      </g>
    </g>
  </g>
  <g id="Layer_1" transform="translate(-2, -2)">
    <g id="Table_2_">
      <g opacity="0.5" class="st1">
        <rect x="22" y="14" width="8" height="6" rx="0" ry="0" fill="#727272" opacity="0.5" class="Black" />
      </g>
    </g>
  </g>
  <g id="Layer_1" transform="translate(-2, -2)">
    <g id="Table_2_">
      <g opacity="0.5" class="st1">
        <rect x="12" y="14" width="8" height="6" rx="0" ry="0" fill="#727272" opacity="0.5" class="Black" />
      </g>
    </g>
  </g>
  <g id="Layer_1" transform="translate(-2, -2)">
    <g id="Table_2_">
      <rect x="2" y="4" width="28" height="8" rx="0" ry="0" fill="#1177D7" class="Blue" />
    </g>
  </g>
  <g id="Layer_1" transform="translate(14, -2)">
    <g id="Arrow4Right_2_">
      <polygon points="9,2 9,2 6.2,2 12.2,8 0,8 0,10 12.2,10 6.2,16 9,16 9,16 16,9  " fill="#039C23" class="Green" />
    </g>
  </g>
</svg>