<?xml version='1.0' encoding='UTF-8'?>
<svg viewBox="-2 -4 32 32" xmlns="http://www.w3.org/2000/svg">
  <g id="Layer_1" transform="translate(-2, -4)">
    <g id="Table_2_">
      <g opacity="0.5" class="st1">
        <rect x="12" y="22" width="8" height="6" rx="0" ry="0" fill="#727272" opacity="0.5" class="Black" />
      </g>
    </g>
  </g>
  <g id="Layer_1" transform="translate(-2, -4)">
    <g id="Table_2_">
      <g opacity="0.5" class="st1">
        <rect x="2" y="14" width="8" height="6" rx="0" ry="0" fill="#727272" opacity="0.5" class="Black" />
      </g>
    </g>
  </g>
  <g id="Layer_1" transform="translate(-2, -4)">
    <g id="Table_2_">
      <g opacity="0.5" class="st1">
        <rect x="2" y="22" width="8" height="6" rx="0" ry="0" fill="#727272" opacity="0.5" class="Black" />
      </g>
    </g>
  </g>
  <g id="Layer_1" transform="translate(-2, -4)">
    <g id="Table_2_">
      <g opacity="0.5" class="st1">
        <rect x="22" y="22" width="8" height="6" rx="0" ry="0" fill="#727272" opacity="0.5" class="Black" />
      </g>
    </g>
  </g>
  <g id="Layer_1" transform="translate(-2, -4)">
    <g id="Table_2_">
      <g opacity="0.5" class="st1">
        <rect x="22" y="14" width="8" height="6" rx="0" ry="0" fill="#727272" opacity="0.5" class="Black" />
      </g>
    </g>
  </g>
  <g id="Layer_1" transform="translate(-2, -4)">
    <g id="Table_2_">
      <g opacity="0.5" class="st1">
        <rect x="12" y="14" width="8" height="6" rx="0" ry="0" fill="#727272" opacity="0.5" class="Black" />
      </g>
    </g>
  </g>
  <g id="Layer_1" transform="translate(-2, -4)">
    <g id="Table_2_">
      <rect x="2" y="4" width="28" height="8" rx="0" ry="0" fill="#1177D7" class="Blue" />
    </g>
  </g>
  <g id="Layer_1" transform="translate(14, 12)">
    <g>
      <path d="M8, 14C4.7, 14 2, 13.1 2, 12L2, 14C2, 15.1 4.7, 16 8, 16C11.3, 16 14, 15.1 14, 14L14, 12C14, 13.1 11.3, 14 8, 14z" fill="#FFB115" class="Yellow" />
    </g>
  </g>
  <g id="Layer_1" transform="translate(14, 12)">
    <g>
      <path d="M8, 10C4.7, 10 2, 9.1 2, 8L2, 10C2, 11.1 4.7, 12 8, 12C11.3, 12 14, 11.1 14, 10L14, 8C14, 9.1 11.3, 10 8, 10z" fill="#FFB115" class="Yellow" />
    </g>
  </g>
  <g id="Layer_1" transform="translate(14, 12)">
    <g>
      <path d="M8, 0C4.7, 0 2, 0.9 2, 2L2, 6C2, 7.1 4.7, 8 8, 8C11.3, 8 14, 7.1 14, 6L14, 2C14, 0.9 11.3, 0 8, 0z" fill="#FFB115" class="Yellow" />
    </g>
  </g>
  <g id="Layer_1" transform="translate(14, 12)">
    <g>
      <path d="M8, 12C4.7, 12 2, 11.1 2, 10L2, 12C2, 13.1 4.7, 14 8, 14C11.3, 14 14, 13.1 14, 12L14, 10C14, 11.1 11.3, 12 8, 12z" fill="#FFFFFF" class="White" />
    </g>
  </g>
  <g id="Layer_1" transform="translate(14, 12)">
    <g>
      <path d="M8, 8C4.7, 8 2, 7.1 2, 6L2, 8C2, 9.1 4.7, 10 8, 10C11.3, 10 14, 9.1 14, 8L14, 6C14, 7.1 11.3, 8 8, 8z" fill="#FFFFFF" class="White" />
    </g>
  </g>
</svg>