<?xml version='1.0' encoding='UTF-8'?>
<svg viewBox="-6 -4 32 32" xmlns="http://www.w3.org/2000/svg" xmlns:xlink="http://www.w3.org/1999/xlink">
  <g id="Layer_1" transform="translate(-6, -4)">
    <g id="List">
      <rect x="12" y="14" width="8" height="2" rx="0" ry="0" fill="#727272" class="Black" />
    </g>
  </g>
  <g id="Layer_1" transform="translate(-6, -4)">
    <g id="List">
      <rect x="12" y="10" width="8" height="2" rx="0" ry="0" fill="#727272" class="Black" />
    </g>
  </g>
  <g id="Layer_1" transform="translate(-6, -4)">
    <g id="List">
      <rect x="12" y="18" width="8" height="2" rx="0" ry="0" fill="#727272" class="Black" />
    </g>
  </g>
  <g id="Layer_1" transform="translate(-6, -4)">
    <g id="List">
      <path d="M25, 4L7, 4C6.5, 4 6, 4.5 6, 5L6, 27C6, 27.5 6.5, 28 7, 28L25, 28C25.5, 28 26, 27.5 26, 27L26, 5C26, 4.5 25.5, 4 25, 4zM24, 26L8, 26L8, 6L24, 6L24, 26z" fill="#727272" class="Black" />
    </g>
  </g>
</svg>