<?xml version='1.0' encoding='UTF-8'?>
<svg viewBox="-4 -4 32 32" xmlns="http://www.w3.org/2000/svg" xmlns:xlink="http://www.w3.org/1999/xlink">
  <g id="Save" transform="translate(-4, -4)">
    <path d="M27, 4L24, 4L24, 14L8, 14L8, 4L5, 4C4.4, 4 4, 4.4 4, 5L4, 27C4, 27.6 4.4, 28 5, 28L27, 28C27.6, 28 28, 27.6 28, 27L28, 5C28, 4.4 27.6, 4 27, 4zM24, 24L8, 24L8, 18L24, 18L24, 24zM10, 4L10, 12L20, 12L20, 4L10, 4zM14, 10L12, 10L12, 6L14, 6L14, 10z" fill="#1177D7" class="Blue" />
  </g>
  <g id="Layer_1" transform="translate(12, 12)">
    <g id="Window_1_">
      <path d="M16, 4L16, 1C16, 0.4 15.5, 0 15, 0L1, 0C0.5, 0 0, 0.4 0, 1L0, 4L16, 4z" fill="#FFB115" class="Yellow" />
    </g>
  </g>
  <g id="Layer_1" transform="translate(12, 12)">
    <g id="Window_1_">
      <path d="M0, 4L0, 15C0, 15.6 0.5, 16 1, 16L15, 16C15.5, 16 16, 15.6 16, 15L16, 4L0, 4z" fill="#727272" class="Black" />
    </g>
  </g>
  <g id="Layer_1" transform="translate(12, 12)">
    <g id="Window_1_">
      <rect x="2" y="4" width="12" height="10" rx="0" ry="0" fill="#FFFFFF" class="White" />
    </g>
  </g>
</svg>