<?xml version='1.0' encoding='UTF-8'?>
<svg viewBox="-6 -4 32 32" xmlns="http://www.w3.org/2000/svg" xmlns:xlink="http://www.w3.org/1999/xlink">
  <g id="Layer_1" transform="translate(-6, -4)" style="enable-background:new 0 0 32 32">
    <g id="Book">
      <path d="M9, 6L26, 6L26, 5C26, 4.4 25.6, 4 25, 4L9, 4C7.3, 4 6, 5.3 6, 7L6, 25C6, 26.7 7.3, 28 9, 28L25, 28C25.6, 28 26, 27.6 26, 27L26, 8L9, 8C8.4, 8 8, 7.6 8, 7C8, 6.4 8.4, 6 9, 6z" fill="#1177D7" class="Blue" />
    </g>
  </g>
  <g transform="translate(12, 14)">
    <g transform="matrix(0.5, 0, 0, 0.5, 0, 0)">
      <g id="Save" transform="translate(-4, -4)">
        <path d="M27, 4L24, 4L24, 14L8, 14L8, 4L5, 4C4.4, 4 4, 4.4 4, 5L4, 27C4, 27.6 4.4, 28 5, 28L27, 28C27.6, 28 28, 27.6 28, 27L28, 5C28, 4.4 27.6, 4 27, 4zM24, 24L8, 24L8, 18L24, 18L24, 24zM10, 4L10, 12L20, 12L20, 4L10, 4zM14, 10L12, 10L12, 6L14, 6L14, 10z" fill="#727272" class="Black" />
      </g>
    </g>
  </g>
</svg>