<?xml version='1.0' encoding='UTF-8'?>
<svg viewBox="-4 -4 32 32" xmlns="http://www.w3.org/2000/svg">
  <g id="Save" transform="translate(-4, -4)">
    <path d="M27, 4L24, 4L24, 14L8, 14L8, 4L5, 4C4.4, 4 4, 4.4 4, 5L4, 27C4, 27.6 4.4, 28 5, 28L27, 28C27.6, 28 28, 27.6 28, 27L28, 5C28, 4.4 27.6, 4 27, 4zM24, 24L8, 24L8, 18L24, 18L24, 24zM10, 4L10, 12L20, 12L20, 4L10, 4zM14, 10L12, 10L12, 6L14, 6L14, 10z" fill="#727272" class="Black" />
  </g>
  <g id="Layer_1" transform="translate(12, 12)">
    <g id="Copy_1_">
      <path d="M15, 0L7, 0C6.5, 0 6, 0.4 6, 1L6, 4L1, 4C0.5, 4 0, 4.4 0, 5L0, 15C0, 15.6 0.5, 16 1, 16L9, 16C9.5, 16 10, 15.6 10, 15L10, 12L15, 12C15.5, 12 16, 11.6 16, 11L16, 1C16, 0.4 15.5, 0 15, 0z" fill="#1177D7" class="Blue" />
    </g>
  </g>
  <g id="Layer_1" transform="translate(12, 12)">
    <g id="Copy_1_">
      <rect x="2" y="6" width="6" height="8" rx="0" ry="0" fill="#FFFFFF" class="White" />
    </g>
  </g>
  <g id="Layer_1" transform="translate(12, 12)">
    <g id="Copy_1_">
      <path d="M8, 2L8, 4L9, 4C9.5, 4 10, 4.4 10, 5L10, 10L14, 10L14, 2L8, 2z" fill="#FFFFFF" class="White" />
    </g>
  </g>
</svg>