<?xml version='1.0' encoding='UTF-8'?>
<svg viewBox="-4 -2 32 32" xmlns="http://www.w3.org/2000/svg">
  <g id="Layer_1" transform="translate(-4, -2)">
    <g id="Map">
      <path d="M20, 10L12, 2L4, 10L4, 30L12, 22L20, 30L28, 22L28, 2L20, 10zM20, 27.2L12, 19.2L12, 4.8L20, 12.8L20, 27.2z" fill="#727272" class="Black" />
    </g>
  </g>
  <g id="Layer_1" transform="translate(12, 14)">
    <g id="Window_1_">
      <path d="M16, 4L16, 1C16, 0.4 15.5, 0 15, 0L1, 0C0.5, 0 0, 0.4 0, 1L0, 4L16, 4z" fill="#1177D7" class="Blue" />
    </g>
  </g>
  <g id="Layer_1" transform="translate(12, 14)">
    <g id="Window_1_">
      <path d="M0, 4L0, 15C0, 15.6 0.5, 16 1, 16L15, 16C15.5, 16 16, 15.6 16, 15L16, 4L0, 4z" fill="#727272" class="Black" />
    </g>
  </g>
  <g id="Layer_1" transform="translate(12, 14)">
    <g id="Window_1_">
      <rect x="2" y="4" width="12" height="10" rx="0" ry="0" fill="#FFFFFF" class="White" />
    </g>
  </g>
</svg>