<?xml version='1.0' encoding='UTF-8'?>
<svg viewBox="-4 -2 32 32" xmlns="http://www.w3.org/2000/svg">
  <g id="Layer_1" transform="translate(-4, -2)">
    <g id="Map">
      <path d="M20, 10L12, 2L4, 10L4, 30L12, 22L20, 30L28, 22L28, 2L20, 10zM20, 27.2L12, 19.2L12, 4.8L20, 12.8L20, 27.2z" fill="#1177D7" class="Blue" />
    </g>
  </g>
  <g id="Layer_1" transform="translate(12, 14)">
    <g id="New_3_">
      <path d="M9, 0L3, 0C2.5, 0 2, 0.4 2, 1L2, 15C2, 15.6 2.5, 16 3, 16L13, 16C13.5, 16 14, 15.6 14, 15L14, 5L9, 0z" fill="#727272" class="Black" />
    </g>
  </g>
  <g id="Layer_1" transform="translate(12, 14)">
    <g id="New_3_">
      <path d="M8, 5L8, 2L4, 2L4, 14L12, 14L12, 6L9, 6C8.5, 6 8, 5.6 8, 5z" fill="#FFFFFF" class="White" />
    </g>
  </g>
</svg>